<svg xmlns="http://www.w3.org/2000/svg" viewBox="0 0 256 256" role="img" aria-label="Sorro mark">
  <defs>
    <linearGradient id="g" x1="42" y1="20" x2="214" y2="236" gradientUnits="userSpaceOnUse">
      <stop stop-color="#6EEBFF"/><stop offset="0.52" stop-color="#3A8BFF"/><stop offset="1" stop-color="#7A5CFF"/>
    </linearGradient>
    <radialGradient id="r" cx="86" cy="54" r="170" gradientUnits="userSpaceOnUse"><stop stop-color="#FFFFFF" stop-opacity=".38"/><stop offset="1" stop-color="#FFFFFF" stop-opacity="0"/></radialGradient>
    <filter id="shadow" x="-20%" y="-20%" width="140%" height="140%"><feDropShadow dx="0" dy="18" stdDeviation="18" flood-color="#236BFF" flood-opacity=".35"/></filter>
  </defs>
  <path filter="url(#shadow)" d="M128 15 226 72v112l-98 57-98-57V72z" fill="#07131F" stroke="url(#g)" stroke-width="13" stroke-linejoin="round"/>
  <path d="M128 29 212 78v100l-84 49-84-49V78z" fill="url(#r)" opacity=".9"/>
  <path d="M169 77H98c-22 0-37 14-37 34 0 17 10 28 31 34l50 14c9 2 13 6 13 12 0 8-7 12-19 12H72v-26h61c6 0 9-2 9-6 0-3-3-5-10-7l-49-13c-24-7-36-19-36-38 0-23 18-38 46-38h76v22Zm-82 102h71c23 0 38-14 38-35 0-18-11-29-34-35l-50-13c-8-2-12-5-12-10 0-7 6-11 18-11h57v25h-55c-6 0-9 2-9 5 0 3 3 5 10 7l49 13c26 7 39 20 39 40 0 24-18 39-48 39H87v-25Z" fill="#F7FBFF"/>
  <path d="M169 77H98c-22 0-37 14-37 34 0 17 10 28 31 34l50 14c9 2 13 6 13 12 0 8-7 12-19 12H72" fill="none" stroke="#7CF7FF" stroke-width="3" stroke-opacity=".32" stroke-linecap="round"/>
</svg>