<svg xmlns="http://www.w3.org/2000/svg" width="380" height="92" viewBox="0 0 380 92" fill="none" role="img" aria-label="Sorro OS by CSorro">
  <defs>
    <linearGradient id="g" x1="16" y1="10" x2="90" y2="88" gradientUnits="userSpaceOnUse">
      <stop stop-color="#5DEBFF"/><stop offset="0.45" stop-color="#178BFF"/><stop offset="1" stop-color="#334BFF"/>
    </linearGradient>
    <linearGradient id="s" x1="20" y1="18" x2="78" y2="74" gradientUnits="userSpaceOnUse">
      <stop stop-color="#F6FDFF"/><stop offset="0.45" stop-color="#38DFFF"/><stop offset="1" stop-color="#0B4EEA"/>
    </linearGradient>
    <filter id="glow" x="-20" y="-20" width="130" height="130"><feDropShadow dx="0" dy="0" stdDeviation="8" flood-color="#178BFF" flood-opacity=".65"/></filter>
  </defs>
  <path d="M46 8 84 30v44L46 96 8 74V30L46 8Z" transform="translate(0 -6)" fill="#06111f" stroke="url(#g)" stroke-width="6" filter="url(#glow)"/>
  <path d="M63 25H37c-12 0-20 7-20 17 0 9 6 15 18 18l20 5c5 1 8 3 8 6 0 4-4 6-10 6H22V62h31L34 57c-18-4-28-14-28-29C6 11 20 1 39 1h25v24Z" transform="translate(12 9)" fill="url(#s)"/>
  <text x="112" y="39" font-family="Inter, Arial, sans-serif" font-weight="900" font-size="34" fill="#F7FBFF" letter-spacing="-.04em">Sorro</text>
  <text x="114" y="64" font-family="Inter, Arial, sans-serif" font-weight="700" font-size="13" letter-spacing=".7" fill="#9EC6DD">Operating System by CSorro</text>
</svg>