<svg width="512" height="512" viewBox="0 0 512 512" fill="none" xmlns="http://www.w3.org/2000/svg" role="img" aria-label="Sorro mark">
  <defs>
    <linearGradient id="hex" x1="112" y1="62" x2="398" y2="450" gradientUnits="userSpaceOnUse">
      <stop stop-color="#4CEBFF"/>
      <stop offset="0.42" stop-color="#1187FF"/>
      <stop offset="1" stop-color="#315BFF"/>
    </linearGradient>
    <linearGradient id="sface" x1="154" y1="112" x2="360" y2="390" gradientUnits="userSpaceOnUse">
      <stop stop-color="#EEF9FF"/>
      <stop offset="0.32" stop-color="#72E8FF"/>
      <stop offset="0.68" stop-color="#167DFF"/>
      <stop offset="1" stop-color="#102C68"/>
    </linearGradient>
    <linearGradient id="sedge" x1="150" y1="112" x2="366" y2="397" gradientUnits="userSpaceOnUse">
      <stop stop-color="#FFFFFF" stop-opacity="0.82"/>
      <stop offset="0.5" stop-color="#78E9FF" stop-opacity="0.32"/>
      <stop offset="1" stop-color="#00142F" stop-opacity="0.78"/>
    </linearGradient>
    <filter id="glow" x="-40" y="-40" width="592" height="592" filterUnits="userSpaceOnUse">
      <feDropShadow dx="0" dy="0" stdDeviation="16" flood-color="#168BFF" flood-opacity="0.55"/>
      <feDropShadow dx="0" dy="28" stdDeviation="26" flood-color="#001123" flood-opacity="0.9"/>
    </filter>
  </defs>
  <path d="M256 38L428 137.5V336.5L256 436L84 336.5V137.5L256 38Z" fill="#081421" stroke="url(#hex)" stroke-width="22" filter="url(#glow)"/>
  <path d="M365 139H219C179 139 151 163 151 196C151 225 169 243 207 254L296 280C323 288 337 305 337 329C337 359 311 379 270 379H138V322H269C280 322 287 318 287 311C287 305 282 301 270 297L183 272C124 255 96 224 96 178C96 123 141 87 209 87H365V139Z" fill="url(#sface)"/>
  <path d="M147 374H294C334 374 362 350 362 316C362 287 343 269 305 258L216 232C189 224 175 209 175 186C175 156 202 136 242 136H374V193H243C232 193 225 197 225 204C225 210 230 214 242 218L329 243C388 260 416 291 416 337C416 392 371 428 303 428H147V374Z" fill="url(#sface)" opacity="0.92" transform="translate(0 -4)"/>
  <path d="M365 139H219C179 139 151 163 151 196C151 225 169 243 207 254L296 280C323 288 337 305 337 329C337 359 311 379 270 379H138" stroke="url(#sedge)" stroke-width="10" stroke-linecap="round" stroke-linejoin="round" opacity="0.36"/>
</svg>