<svg xmlns="http://www.w3.org/2000/svg" width="380" height="92" viewBox="0 0 380 92" fill="none"><rect x="2" y="2" width="88" height="88" rx="24" fill="url(#g)" stroke="rgba(255,255,255,.18)" stroke-width="4"/><path d="M58 25c-4-5-10-8-17-8-15 0-25 11-25 28s10 29 25 29c8 0 15-4 20-10l-10-11c-3 4-6 6-10 6-7 0-12-5-12-14s5-14 12-14c4 0 8 2 10 5l7-11Z" fill="white"/><path d="M64 58c7 0 11-3 11-8 0-5-3-7-10-9-5-1-7-2-7-4s2-4 6-4c4 0 8 1 12 4l5-10c-5-4-10-6-17-6-12 0-20 7-20 17 0 8 5 13 17 16 5 1 7 2 7 4 0 3-2 4-6 4-5 0-10-2-15-6l-6 10c6 5 14 8 23 8Z" fill="#ffb13b"/><text x="112" y="39" font-family="Inter, Arial, sans-serif" font-weight="900" font-size="30" fill="white">C Sorro</text><text x="112" y="64" font-family="Inter, Arial, sans-serif" font-weight="700" font-size="13" letter-spacing="3" fill="#ffb13b">PRODUCTION SYSTEMS</text><defs><linearGradient id="g" x1="0" y1="0" x2="92" y2="92"><stop stop-color="#ff8a1f"/><stop offset=".5" stop-color="#141827"/><stop offset="1" stop-color="#7ee7ff"/></linearGradient></defs></svg>