<svg width="512" height="512" viewBox="0 0 512 512" fill="none" xmlns="http://www.w3.org/2000/svg">
  <defs>
    <linearGradient id="g" x1="96" y1="64" x2="416" y2="448" gradientUnits="userSpaceOnUse">
      <stop stop-color="#42F1FF"/>
      <stop offset="0.48" stop-color="#117BFF"/>
      <stop offset="1" stop-color="#2851FF"/>
    </linearGradient>
    <linearGradient id="s" x1="136" y1="118" x2="378" y2="399" gradientUnits="userSpaceOnUse">
      <stop stop-color="#EAFBFF"/>
      <stop offset="0.34" stop-color="#56DFFF"/>
      <stop offset="0.62" stop-color="#147BFF"/>
      <stop offset="1" stop-color="#0B2558"/>
    </linearGradient>
    <filter id="glow" x="0" y="0" width="512" height="512" filterUnits="userSpaceOnUse" color-interpolation-filters="sRGB">
      <feDropShadow dx="0" dy="0" stdDeviation="16" flood-color="#127DFF" flood-opacity="0.45"/>
      <feDropShadow dx="0" dy="20" stdDeviation="30" flood-color="#06152E" flood-opacity="0.8"/>
    </filter>
  </defs>
  <path d="M256 28 451 140v232L256 484 61 372V140L256 28Z" fill="#071320" stroke="url(#g)" stroke-width="20" filter="url(#glow)"/>
  <path d="M371 138H204c-52 0-87 29-87 72 0 36 24 57 68 70l105 30c18 5 27 12 27 25 0 17-15 27-44 27H131v-58h139c20 0 31-7 31-19 0-10-8-16-25-21l-101-29c-48-14-72-39-72-76 0-48 40-80 98-80h170v59Z" fill="url(#s)"/>
  <path d="M141 375h168c58 0 99-32 99-80 0-39-25-62-76-77l-99-29c-18-5-26-11-26-22 0-13 13-21 35-21h130V91H229c-55 0-94 31-94 77 0 38 24 61 73 75l103 30c20 6 29 13 29 26 0 16-15 25-42 25H141v51Z" fill="white" fill-opacity="0.18"/>
</svg>
